<?xml version="1.0" encoding="UTF-8"?>
<svg version="1.1" xmlns="http://www.w3.org/2000/svg" width="400" height="400">
<path d="M0 0 C1.00039307 0.27287842 1.00039307 0.27287842 2.02099609 0.55126953 C35.44955473 9.87261444 62.6099668 33.44643316 80.25 62.8125 C89.44638053 79.54689736 96.13659929 99.22263468 96.12025452 118.46043396 C96.12231651 120.34281013 96.12231651 120.34281013 96.12442017 122.26321411 C96.12088198 123.6356814 96.11724718 125.00814843 96.11352539 126.38061523 C96.11324303 127.83975726 96.11340221 129.29889943 96.1139679 130.75804138 C96.11425395 134.70379457 96.10838827 138.64951715 96.10139394 142.59526324 C96.09512842 146.72456375 96.09455407 150.85386502 96.09336853 154.98316956 C96.09026463 162.79570556 96.08206395 170.60822752 96.07201904 178.42075735 C96.06082864 187.31796733 96.05534008 196.21517799 96.05032361 205.11239326 C96.03988054 223.40827013 96.02229936 241.70413393 96 260 C77.04865645 260.09388057 58.09736078 260.16419168 39.14583206 260.20724869 C30.34421211 260.22778158 21.54273752 260.2557223 12.74121094 260.30175781 C5.06035527 260.34191225 -2.62039501 260.36749998 -10.30135274 260.37635398 C-14.35983552 260.3815209 -18.41801708 260.39346548 -22.47640228 260.42292023 C-39.30120946 260.54022907 -55.6594733 260.61001558 -72 256 C-73.04311718 255.70832569 -73.04311718 255.70832569 -74.10730743 255.41075897 C-107.51356217 245.8908994 -134.56184717 222.6336735 -152.25 193.1875 C-167.92781798 164.65901154 -173.7745038 127.68936891 -165.19140625 95.96875 C-164.79834452 94.64461726 -164.40131119 93.32165592 -164 92 C-163.81808105 91.35160156 -163.63616211 90.70320313 -163.44873047 90.03515625 C-154.0299444 56.56858483 -130.63743839 29.44041438 -101.1875 11.75 C-70.96448413 -4.85904476 -33.24998281 -9.46555066 0 0 Z " fill="#1689CA" transform="translate(236,72)"/>
<path d="M0 0 C12.931875 -0.0825 25.86375 -0.165 39.1875 -0.25 C43.26633545 -0.28641602 47.3451709 -0.32283203 51.54760742 -0.36035156 C56.53967285 -0.37841797 56.53967285 -0.37841797 58.87886047 -0.3817749 C60.50785189 -0.38790549 62.13682548 -0.40194975 63.76570129 -0.42230225 C66.23759345 -0.45163626 68.70837946 -0.45562245 71.18041992 -0.45410156 C72.26358506 -0.47569021 72.26358506 -0.47569021 73.36863232 -0.497715 C76.91491022 -0.46856018 78.90694323 -0.05723493 81.95324707 1.81640625 C84.89836099 4.95842318 84.57252858 7.14455954 84.48828125 11.390625 C84.47579346 12.68000977 84.46330566 13.96939453 84.45043945 15.29785156 C84.38215942 17.74916504 84.38215942 17.74916504 84.3125 20.25 C84.209375 25.4475 84.10625 30.645 84 36 C66.84 36 49.68 36 32 36 C32 69 32 102 32 136 C21.44 136 10.88 136 0 136 C0 91.12 0 46.24 0 0 Z " fill="#FEFEFE" transform="translate(184,132)"/>
<path d="M0 0 C1.28938477 0.00999023 2.57876953 0.01998047 3.90722656 0.03027344 C6.35854004 0.08489746 6.35854004 0.08489746 8.859375 0.140625 C14.056875 0.223125 19.254375 0.305625 24.609375 0.390625 C24.609375 12.270625 24.609375 24.150625 24.609375 36.390625 C12.729375 36.390625 0.849375 36.390625 -11.390625 36.390625 C-11.473125 31.193125 -11.555625 25.995625 -11.640625 20.640625 C-11.67704102 19.00641602 -11.71345703 17.37220703 -11.75097656 15.68847656 C-11.7609668 14.3990918 -11.77095703 13.10970703 -11.78125 11.78125 C-11.80219727 10.46157227 -11.82314453 9.14189453 -11.84472656 7.78222656 C-11.390625 4.390625 -11.390625 4.390625 -9.828125 1.953125 C-6.43823391 -0.21988211 -4.00765548 -0.06361358 0 0 Z " fill="#FEFEFE" transform="translate(143.390625,131.609375)"/>
<path d="M0 0 C11.88 0 23.76 0 36 0 C36.0825 4.16625 36.165 8.3325 36.25 12.625 C36.28641602 13.92775879 36.32283203 15.23051758 36.36035156 16.57275391 C36.46458887 27.43192729 36.46458887 27.43192729 32 32 C27.30573886 36.58791866 22.80162344 36.42014254 16.57275391 36.36035156 C15.26999512 36.32393555 13.96723633 36.28751953 12.625 36.25 C8.45875 36.1675 4.2925 36.085 0 36 C0 24.12 0 12.24 0 0 Z " fill="#FEFEFE" transform="translate(232,232)"/>
<path d="M0 0 C11.88 0 23.76 0 36 0 C36 11.88 36 23.76 36 36 C31.83375 36.0825 27.6675 36.165 23.375 36.25 C22.07224121 36.28641602 20.76948242 36.32283203 19.42724609 36.36035156 C8.56807271 36.46458887 8.56807271 36.46458887 4 32 C-0.58791866 27.30573886 -0.42014254 22.80162344 -0.36035156 16.57275391 C-0.32393555 15.26999512 -0.28751953 13.96723633 -0.25 12.625 C-0.1675 8.45875 -0.085 4.2925 0 0 Z " fill="#FEFEFE" transform="translate(132,232)"/>
<path d="M0 0 C11.88 0 23.76 0 36 0 C36 10.56 36 21.12 36 32 C24.12 32 12.24 32 0 32 C0 21.44 0 10.88 0 0 Z " fill="#FFFFFF" transform="translate(232,184)"/>
<path d="M0 0 C11.88 0 23.76 0 36 0 C36 10.56 36 21.12 36 32 C24.12 32 12.24 32 0 32 C0 21.44 0 10.88 0 0 Z " fill="#FFFFFF" transform="translate(132,184)"/>
</svg>
